<svg width="423" height="92" viewBox="0 0 423 92" fill="none" xmlns="http://www.w3.org/2000/svg">
<path d="M62.5379 91.4085C52.2573 91.4085 47.9609 85.5776 47.9609 78.3658C47.9609 76.9848 48.1143 75.7573 48.4212 74.3763L54.0986 44.7618C54.5589 42.3067 54.8658 40.1585 54.8658 38.4706C54.8658 33.8674 53.1779 31.8726 49.9556 31.8726C47.8074 31.8726 45.5058 33.2536 43.2041 37.0897L35.3785 77.2917C34.7648 80.0537 34.4579 82.0484 34.4579 83.4294C34.4579 85.8845 35.6854 86.6517 39.0612 86.6517L38.4474 89.874H0.393555L1.00733 86.6517C6.22439 86.6517 6.53127 84.8104 8.0657 77.2917L16.5051 34.0208C17.1188 31.2588 17.4257 29.4175 17.4257 27.8831C17.4257 25.428 16.3516 24.6608 13.1293 24.6608L13.7431 21.4385H46.273L44.1248 32.6398C48.1143 25.7349 54.5589 19.9041 64.6861 19.9041C76.3478 19.9041 82.1786 27.2693 82.1786 37.7034C82.1786 39.6982 82.0252 41.6929 81.5649 43.8412L74.9668 77.752C74.8134 78.3658 74.8134 78.9796 74.8134 79.4399C74.8134 81.4347 75.734 82.3553 77.8822 82.3553C78.9563 82.3553 80.3373 81.7416 81.7183 80.8209L83.0993 83.1225C77.115 87.8793 69.4429 91.4085 62.5379 91.4085Z" fill="black"/>
<path d="M109.07 91.4085C93.5718 91.4085 79.6085 80.514 79.6085 63.175C79.6085 39.0844 101.858 19.9041 124.414 19.9041C139.912 19.9041 153.875 30.7985 153.875 48.1376C153.875 72.2281 131.626 91.4085 109.07 91.4085ZM109.683 87.4189C117.509 87.4189 127.022 55.6563 127.022 33.407C127.022 26.5021 125.795 23.8936 123.8 23.8936C115.974 23.8936 106.461 55.6563 106.461 77.9055C106.461 84.8104 107.689 87.4189 109.683 87.4189Z" fill="black"/>
<path d="M182.737 86.6517L182.123 89.874H142.534L143.148 86.6517C148.365 86.6517 148.672 84.8104 150.207 77.2917L158.646 34.0208C159.26 31.2588 159.567 29.4175 159.567 27.8831C159.567 25.428 158.493 24.6608 155.27 24.6608L155.884 21.4385H188.414L185.038 38.6241C194.398 23.7401 198.848 19.9041 205.6 19.9041C209.129 19.9041 212.351 21.5919 214.806 23.5867L207.441 48.5979L206.674 48.7513C202.377 42.3067 197.314 38.3172 191.943 38.3172C189.335 38.3172 186.419 40.312 184.117 43.0739L177.519 77.2917C177.059 79.5934 176.752 81.4347 176.752 82.6622C176.752 85.7311 178.287 86.6517 182.737 86.6517Z" fill="black"/>
<path d="M298.635 91.4085C288.354 91.4085 284.058 85.5776 284.058 78.3658C284.058 76.9848 284.211 75.7573 284.518 74.3763L290.196 44.7618C290.656 42.1533 290.963 40.0051 290.963 38.3172C290.963 33.8674 289.275 31.8726 286.053 31.8726C283.598 31.8726 280.989 33.5605 278.687 38.1638C278.687 40.0051 278.534 41.8464 278.074 43.8412L271.629 77.2917C271.169 80.0537 270.708 82.0484 270.708 83.4294C270.708 85.8845 271.936 86.6517 275.312 86.6517L274.698 89.874H237.411L238.025 86.6517C242.628 86.6517 242.782 84.8104 244.316 77.2917L250.607 44.7618C251.068 42.1533 251.375 40.0051 251.375 38.3172C251.375 33.8674 249.687 31.8726 246.464 31.8726C244.316 31.8726 242.015 33.2536 239.713 37.0897L231.887 77.2917C231.274 80.2071 230.813 82.3553 230.813 83.7363C230.813 86.038 231.887 86.6517 234.803 86.6517L234.189 89.874H196.902L197.516 86.6517C202.733 86.6517 203.04 84.8104 204.575 77.2917L213.014 34.0208C213.628 31.2588 213.935 29.4175 213.935 27.8831C213.935 25.428 212.86 24.6608 209.638 24.6608L210.252 21.4385H242.782L240.634 32.6398C244.623 25.7349 251.068 19.9041 261.195 19.9041C271.322 19.9041 277 25.428 278.381 33.7139C282.524 26.3487 290.196 19.9041 300.783 19.9041C312.445 19.9041 318.276 27.2693 318.276 37.7034C318.276 39.6982 318.122 41.6929 317.662 43.8412L311.064 77.752C310.91 78.3658 310.911 78.9796 310.911 79.4399C310.911 81.4347 311.831 82.3553 313.979 82.3553C315.053 82.3553 316.434 81.7416 317.815 80.8209L319.196 83.1225C313.212 87.8793 305.54 91.4085 298.635 91.4085Z" fill="black"/>
<path d="M366.927 91.4085C358.641 91.4085 353.577 87.2655 352.503 81.2812C348.207 86.3448 340.841 91.4085 332.862 91.4085C322.889 91.4085 314.296 84.0432 314.296 71.154C314.296 42.6136 342.683 19.9041 373.832 19.9041C378.282 19.9041 385.8 20.2109 390.864 21.7454L379.356 77.752C379.202 78.3658 379.202 78.9796 379.202 79.4399C379.202 81.4347 380.123 82.3553 382.271 82.3553C383.345 82.3553 384.726 81.7416 386.107 80.8209L387.488 83.1225C381.504 87.8793 373.832 91.4085 366.927 91.4085ZM349.434 79.2865C350.508 79.2865 351.429 79.133 352.35 78.6727C352.35 77.2917 352.503 75.7573 352.81 74.3763L363.244 24.8142C354.651 25.8883 341.762 43.0739 341.762 66.8576C341.762 74.6832 345.598 79.2865 349.434 79.2865Z" fill="black"/>
<path d="M417.274 29.9657C398.646 33.2545 395.979 35.9208 392.69 54.5496C389.402 35.9208 386.735 33.2545 368.106 29.9657C386.735 26.6768 389.402 24.0105 392.69 5.38171C395.979 24.0105 398.646 26.6768 417.274 29.9657Z" fill="white" stroke="black" stroke-width="1.87147" stroke-miterlimit="10"/>
</svg>
